<svg width="4000" height="1243" viewBox="0 0 4000 1243" fill="none" xmlns="http://www.w3.org/2000/svg">
<path d="M234.166 497.602H132.531L156.924 350.436C159.363 336.613 156.11 332.548 142.288 332.548H140.662C126.027 332.548 121.961 335.8 119.522 350.436L94.3167 497.602H50.4107C34.1492 497.602 29.2707 502.481 29.2707 518.742V521.181C29.2707 537.443 34.1492 542.321 50.4107 542.321H86.9991L59.3545 704.123H21.14C4.87845 704.123 0 709.002 0 725.263V727.702C0 743.964 4.87845 748.842 21.14 748.842H51.2237L26.8315 896.009C24.3923 909.831 27.6446 913.897 42.2799 913.897H43.9061C57.7283 913.897 62.6068 910.644 65.046 896.009L89.4383 748.842H191.073L166.68 896.009C164.241 909.831 167.494 913.897 181.316 913.897H182.942C197.577 913.897 201.643 910.644 204.082 896.009L228.474 748.842H272.38C288.642 748.842 293.52 743.964 293.52 727.702V725.263C293.52 709.002 288.642 704.123 272.38 704.123H236.605L264.249 542.321H301.651C317.912 542.321 322.791 537.443 322.791 521.181V518.742C322.791 502.481 317.912 497.602 301.651 497.602H271.567L296.772 350.436C299.212 336.613 295.959 332.548 282.137 332.548H280.511C265.876 332.548 261.81 335.8 259.371 350.436L234.166 497.602ZM226.848 542.321L199.203 704.123H97.569L124.401 542.321H226.848Z" fill="#DA021B"/>
<path d="M414.465 892.757C414.465 909.018 419.344 913.897 435.605 913.897H449.427C465.689 913.897 470.567 909.018 470.567 892.757V661.03H528.296L647.818 895.196C655.948 909.831 661.64 913.897 678.715 913.897H704.733C720.181 913.897 723.434 909.018 716.116 895.196L588.463 661.03H598.22C672.21 661.03 696.602 618.75 696.602 565.087V429.304C696.602 375.641 672.21 332.548 598.22 332.548H435.605C419.344 332.548 414.465 337.426 414.465 353.688V892.757ZM615.295 378.08C629.117 378.08 640.5 390.276 640.5 404.912V587.854C640.5 602.489 629.117 614.685 615.295 614.685H470.567V378.08H615.295Z" fill="#DA021B"/>
<path d="M1077.46 889.504C1077.46 873.243 1072.59 868.364 1056.32 868.364H862.813V644.769H966.886C983.148 644.769 988.026 639.89 988.026 623.629V617.124C988.026 600.863 983.148 595.984 966.886 595.984H862.813V378.08H1046.57C1062.83 378.08 1067.71 373.202 1067.71 356.94V353.688C1067.71 337.426 1062.83 332.548 1046.57 332.548H827.85C811.589 332.548 806.71 337.426 806.71 353.688V892.757C806.71 909.018 811.589 913.897 827.85 913.897H1056.32C1072.59 913.897 1077.46 909.018 1077.46 892.757V889.504Z" fill="#DA021B"/>
<path d="M1300.94 332.548H1171.66C1155.4 332.548 1150.52 337.426 1150.52 353.688V892.757C1150.52 909.018 1155.4 913.897 1171.66 913.897H1300.94C1382.25 913.897 1447.29 868.364 1447.29 756.973V489.471C1447.29 378.08 1382.25 332.548 1300.94 332.548ZM1392 482.967V763.478C1392 807.384 1371.68 868.364 1295.25 868.364H1206.62V378.08H1295.25C1371.68 378.08 1392 439.061 1392 482.967Z" fill="#DA021B"/>
<path d="M1628.67 378.08V892.757C1628.67 909.018 1633.54 913.897 1649.81 913.897H1663.63C1679.89 913.897 1684.77 909.018 1684.77 892.757V378.08H1793.72C1809.98 378.08 1814.86 373.202 1814.86 356.94V353.688C1814.86 337.426 1809.98 332.548 1793.72 332.548H1520.53C1504.27 332.548 1499.39 337.426 1499.39 353.688V356.94C1499.39 373.202 1504.27 378.08 1520.53 378.08H1628.67Z" fill="#DA021B"/>
<path d="M2155.74 889.504C2155.74 873.243 2150.86 868.364 2134.6 868.364H1941.09V644.769H2045.16C2061.43 644.769 2066.3 639.89 2066.3 623.629V617.124C2066.3 600.863 2061.43 595.984 2045.16 595.984H1941.09V378.08H2124.85C2141.11 378.08 2145.99 373.202 2145.99 356.94V353.688C2145.99 337.426 2141.11 332.548 2124.85 332.548H1906.13C1889.87 332.548 1884.99 337.426 1884.99 353.688V892.757C1884.99 909.018 1889.87 913.897 1906.13 913.897H2134.6C2150.86 913.897 2155.74 909.018 2155.74 892.757V889.504Z" fill="#DA021B"/>
<path d="M2516.63 913.897C2532.89 913.897 2536.14 909.018 2532.08 893.57L2386.53 352.875C2381.66 336.613 2376.78 332.548 2359.7 332.548H2354.82C2337.75 332.548 2332.87 336.613 2327.99 352.875L2184.89 893.57C2180.83 909.018 2184.08 913.897 2200.34 913.897H2211.72C2228.8 913.897 2233.68 909.831 2237.74 893.57L2268.64 767.543H2440.2L2471.91 893.57C2475.97 909.831 2480.85 913.897 2497.93 913.897H2516.63ZM2429.63 722.824H2280.02L2354.82 417.921H2355.64L2429.63 722.824Z" fill="#DA021B"/>
<path d="M2775.72 730.142C2780.6 742.338 2785.48 745.59 2799.3 745.59H2800.92C2814.75 745.59 2819.62 742.338 2825.32 730.142L2935.89 476.462H2936.71V892.757C2936.71 909.018 2941.59 913.897 2957.85 913.897H2966.79C2983.05 913.897 2987.93 909.018 2987.93 892.757V352.875C2987.93 336.613 2983.87 332.548 2967.6 332.548H2965.98C2949.72 332.548 2944.84 335.8 2938.33 351.249L2802.55 661.03L2666.77 352.062C2660.26 336.613 2654.57 332.548 2637.5 332.548H2634.24C2617.98 332.548 2613.1 337.426 2613.1 353.688V892.757C2613.1 909.018 2617.98 913.897 2634.24 913.897H2644C2660.26 913.897 2665.14 909.018 2665.14 892.757V476.462H2665.95L2775.72 730.142Z" fill="#DA021B"/>
<path d="M3169.44 644.769H3273.51C3289.77 644.769 3294.65 639.89 3294.65 623.629V617.124C3294.65 600.863 3289.77 595.984 3273.51 595.984H3169.44V378.08H3346.69C3362.95 378.08 3367.83 373.202 3367.83 356.94V353.688C3367.83 337.426 3362.95 332.548 3346.69 332.548H3134.47C3118.21 332.548 3113.33 337.426 3113.33 353.688V892.757C3113.33 909.018 3118.21 913.897 3134.47 913.897H3148.3C3164.56 913.897 3169.44 909.018 3169.44 892.757V644.769Z" fill="#DA021B"/>
<path d="M3813.81 378.08V892.757C3813.81 909.018 3818.68 913.897 3834.95 913.897H3848.77C3865.03 913.897 3869.91 909.018 3869.91 892.757V378.08H3978.86C3995.12 378.08 4000 373.202 4000 356.94V353.688C4000 337.426 3995.12 332.548 3978.86 332.548H3705.67C3689.41 332.548 3684.53 337.426 3684.53 353.688V356.94C3684.53 373.202 3689.41 378.08 3705.67 378.08H3813.81Z" fill="#DA021B"/>
<path d="M3504.36 334.987H3559.64V913.897H3504.36V334.987Z" fill="#DA021B"/>
<path d="M3447.44 343.361C3447.44 337.838 3451.92 333.361 3457.44 333.361H3604.93C3610.46 333.361 3614.93 337.838 3614.93 343.361V368.893C3614.93 374.416 3610.46 378.893 3604.93 378.893H3457.44C3451.92 378.893 3447.44 374.416 3447.44 368.893V343.361Z" fill="#DA021B"/>
<path d="M3447.44 878.364C3447.44 872.842 3451.92 868.364 3457.44 868.364H3604.93C3610.46 868.364 3614.93 872.842 3614.93 878.364V903.897C3614.93 909.419 3610.46 913.897 3604.93 913.897H3457.44C3451.92 913.897 3447.44 909.419 3447.44 903.897V878.364Z" fill="#DA021B"/>
<path d="M3448.19 1147.18C3448.19 1144.97 3449.98 1143.18 3452.19 1143.18H3611.12C3613.33 1143.18 3615.12 1144.97 3615.12 1147.18V1172.33C3615.12 1174.54 3613.33 1176.33 3611.12 1176.33H3452.19C3449.98 1176.33 3448.19 1174.54 3448.19 1172.33V1147.18Z" fill="#DA021B"/>
<path d="M3615.8 95.4482C3615.8 97.6573 3614.01 99.4482 3611.8 99.4482L3452.87 99.4482C3450.66 99.4482 3448.87 97.6573 3448.87 95.4482L3448.87 70.2987C3448.87 68.0895 3450.66 66.2987 3452.87 66.2987L3611.8 66.2987C3614.01 66.2987 3615.8 68.0895 3615.8 70.2987L3615.8 95.4482Z" fill="#DA021B"/>
<path d="M3297.83 965.933C3297.83 956.054 3305.32 948.046 3314.56 948.046H3749.44C3758.68 948.046 3766.16 956.054 3766.16 965.933V1001.71C3766.16 1011.59 3758.68 1019.6 3749.44 1019.6H3314.56C3305.32 1019.6 3297.83 1011.59 3297.83 1001.71V965.933Z" fill="#82929E"/>
<path d="M3766.16 276.699C3766.16 286.578 3758.68 294.586 3749.44 294.586L3314.56 294.586C3305.32 294.586 3297.83 286.578 3297.83 276.699L3297.83 240.923C3297.83 231.044 3305.32 223.036 3314.56 223.036L3749.44 223.036C3758.68 223.036 3766.16 231.044 3766.16 240.923L3766.16 276.699Z" fill="#82929E"/>
<path d="M3347.56 1063.5C3347.56 1053.62 3355.05 1045.61 3364.3 1045.61H3699.02C3708.26 1045.61 3715.76 1053.62 3715.76 1063.5V1099.28C3715.76 1109.16 3708.26 1117.17 3699.02 1117.17H3364.3C3355.05 1117.17 3347.56 1109.16 3347.56 1099.28V1063.5Z" fill="#82929E"/>
<path d="M3716.44 179.13C3716.44 189.009 3708.94 197.017 3699.7 197.017L3364.98 197.017C3355.73 197.017 3348.24 189.009 3348.24 179.13L3348.24 143.354C3348.24 133.475 3355.73 125.467 3364.98 125.467L3699.7 125.467C3708.94 125.467 3716.44 133.475 3716.44 143.354L3716.44 179.13Z" fill="#82929E"/>
<path d="M3515.68 1163.76C3515.68 1161.55 3517.47 1159.76 3519.68 1159.76H3544.83C3547.03 1159.76 3548.83 1161.55 3548.83 1163.76V1238.63C3548.83 1240.84 3547.03 1242.63 3544.83 1242.63H3519.68C3517.47 1242.63 3515.68 1240.84 3515.68 1238.63V1163.76Z" fill="#DA021B"/>
<path d="M3548.32 78.8738C3548.32 81.083 3546.53 82.8738 3544.32 82.8738L3519.17 82.8738C3516.96 82.8738 3515.17 81.083 3515.17 78.8738L3515.17 4.00004C3515.17 1.79091 3516.96 4.30349e-05 3519.17 4.3228e-05L3544.32 4.54267e-05C3546.53 4.56198e-05 3548.32 1.79091 3548.32 4.00005L3548.32 78.8738Z" fill="#DA021B"/>
</svg>
