<?xml version="1.0" encoding="UTF-8"?>
<svg width="353px" height="69px" viewBox="0 0 353 69" version="1.1" xmlns="http://www.w3.org/2000/svg" xmlns:xlink="http://www.w3.org/1999/xlink">
    <!-- Generator: Sketch 53.2 (72643) - https://sketchapp.com -->
    <title>Group 2</title>
    <desc>Created with Sketch.</desc>
    <g id="Page-1" stroke="none" stroke-width="1" fill="none" fill-rule="evenodd">
        <g id="Group-2">
            <g id="Group">
                <rect id="Rectangle" stroke="#DA021B" stroke-width="4" fill="#23303B" x="2" y="2" width="349" height="65" rx="8"></rect>
                <g id="#RedTeamFit" transform="translate(13.439468, 14.545452)" fill-rule="nonzero" stroke="#11191F">
                    <path d="M0,30.1545476 L1.57818193,23.1090925 L5.80545496,23.1090925 L7.27090961,16.3454557 L3.04363658,16.3454557 L4.62181851,9.30000066 L8.84909154,9.30000066 L10.1454553,3.38181842 L18.3181831,3.38181842 L17.0218194,9.30000066 L24.0672744,9.30000066 L25.3636382,3.38181842 L33.5927297,3.38181842 L32.2963659,9.30000066 L36.5236389,9.30000066 L34.945457,16.3454557 L30.718184,16.3454557 L29.2527293,23.1090925 L33.4800024,23.1090925 L31.9018204,30.1545476 L27.6745474,30.1545476 L26.3781837,36.0727298 L18.1490922,36.0727298 L19.4454559,30.1545476 L12.4000009,30.1545476 L11.1036371,36.0727298 L2.9309093,36.0727298 L4.22727303,30.1545476 L0,30.1545476 Z M13.9781828,23.1090925 L21.0236379,23.1090925 L22.4890925,16.3454557 L15.4436375,16.3454557 L13.9781828,23.1090925 Z" id="#" fill="#EB142E"></path>
                    <path d="M61.882578,0 C66.5607602,0 68.8716694,2.76181838 67.8007603,7.60909145 L65.2080328,19.3327286 C64.3062146,23.2781835 62.5589417,25.6454564 59.5716688,26.6600019 L61.8262144,39.4545482 L51.6807591,39.4545482 L50.0462135,27.2236383 L45.9880314,27.2236383 L43.2262131,39.4545482 L33.9262124,39.4545482 L41.8171221,4.11454575 L40.7462129,0 L61.882578,0 Z M47.7916679,19.0509104 L54.5553048,19.0509104 C55.6262139,19.0509104 56.0207594,18.7127286 56.246214,17.6418194 L58.0498505,9.58181886 C58.275305,8.56727333 57.9371232,8.17272785 56.9225777,8.17272785 L50.1589408,8.17272785 L47.7916679,19.0509104 Z M93.554245,8.17272785 L81.5487896,8.17272785 L80.0269714,15.2181829 L92.9906086,15.2181829 L87.3542446,23.3909107 L78.2233349,23.3909107 L76.476062,31.2818204 L92.2578813,31.2818204 L86.6215173,39.4545482 L65.3160612,39.4545482 L73.2069709,4.11454575 L72.1360617,0 L99.1906091,0 L93.554245,8.17272785 Z M120.491367,0 C125.169549,0 127.480458,2.76181838 126.409549,7.60909145 L121.055003,31.5636386 C119.871367,37.0309117 116.884094,39.4545482 111.41682,39.4545482 L92.535001,39.4545482 L100.425911,4.11454575 L99.3550014,0 L120.491367,0 Z M116.658639,9.58181886 C116.884094,8.56727333 116.545912,8.17272785 115.531366,8.17272785 L108.767729,8.17272785 L103.695002,31.2818204 L110.458639,31.2818204 C111.529548,31.2818204 111.924093,30.9436386 112.149548,29.8727294 L116.658639,9.58181886 Z M128.433941,8.17272785 L130.293941,0 L157.06667,0 L155.20667,8.17272785 L146.470306,8.17272785 L139.537578,39.4545482 L130.237577,39.4545482 L137.170305,8.17272785 L128.433941,8.17272785 Z M180.058337,8.17272785 L168.052882,8.17272785 L166.531063,15.2181829 L179.494701,15.2181829 L173.858337,23.3909107 L164.727427,23.3909107 L162.980154,31.2818204 L178.761973,31.2818204 L173.125609,39.4545482 L151.820153,39.4545482 L159.711063,4.11454575 L158.640154,0 L185.694701,0 L180.058337,8.17272785 Z M207.95364,39.4545482 L198.259094,39.4545482 L198.484549,31.2818204 L189.353639,31.2818204 L185.859093,39.4545482 L176.390002,39.4545482 L192.791821,4.22727303 L191.720912,0 L207.164549,0 L207.95364,39.4545482 Z M192.848185,23.1090925 L198.766367,23.1090925 L199.160912,9.01818246 L198.822731,9.01818246 L192.848185,23.1090925 Z M245.036217,0 L254.899854,0 L246.107126,39.4545482 L236.807125,39.4545482 L242.105308,15.7818193 L229.76167,32.0145477 L224.632579,15.7818193 L219.334397,39.4545482 L210.034396,39.4545482 L217.925306,4.11454575 L216.854397,0 L228.127125,0 L232.805307,15.669092 L245.036217,0 Z M279.300611,8.17272785 L267.295155,8.17272785 L265.773337,15.2181829 L278.736974,15.2181829 L273.10061,23.3909107 L263.969701,23.3909107 L260.362428,39.4545482 L251.062427,39.4545482 L258.953337,4.11454575 L257.882427,0 L284.936975,0 L279.300611,8.17272785 Z M296.374095,0 L287.581367,39.4545482 L278.281367,39.4545482 L286.172276,4.11454575 L285.101367,0 L296.374095,0 Z M296.989398,8.17272785 L298.849398,0 L325.622127,0 L323.762127,8.17272785 L315.025762,8.17272785 L308.093035,39.4545482 L298.793034,39.4545482 L305.725762,8.17272785 L296.989398,8.17272785 Z" id="RedTeamFit" fill="#DA021B"></path>
                </g>
            </g>
        </g>
    </g>
</svg>